<svg t="1773106732942" class="icon" viewBox="0 0 1024 1024" version="1.1" xmlns="http://www.w3.org/2000/svg" p-id="5025" width="256" height="256"><path d="M896 256c0-72.533333-55.466667-128-128-128s-128 55.466667-128 128c0 55.466667 34.133333 98.133333 81.066667 119.466667-17.066667 55.466667-64 93.866667-123.733334 93.866666h-170.666666c-46.933333 0-93.866667 17.066667-128 42.666667V375.466667C349.866667 358.4 384 311.466667 384 256c0-72.533333-55.466667-128-128-128S128 183.466667 128 256c0 55.466667 34.133333 102.4 85.333333 119.466667v273.066666c-51.2 17.066667-85.333333 64-85.333333 119.466667 0 72.533333 55.466667 128 128 128s128-55.466667 128-128c0-55.466667-34.133333-98.133333-81.066667-119.466667 17.066667-55.466667 64-93.866667 123.733334-93.866666h170.666666c106.666667 0 192-76.8 209.066667-179.2C857.6 362.666667 896 311.466667 896 256zM256 213.333333c25.6 0 42.666667 17.066667 42.666667 42.666667s-17.066667 42.666667-42.666667 42.666667-42.666667-17.066667-42.666667-42.666667 17.066667-42.666667 42.666667-42.666667z m0 597.333334c-25.6 0-42.666667-17.066667-42.666667-42.666667s17.066667-42.666667 42.666667-42.666667 42.666667 17.066667 42.666667 42.666667-17.066667 42.666667-42.666667 42.666667zM768 298.666667c-25.6 0-42.666667-17.066667-42.666667-42.666667s17.066667-42.666667 42.666667-42.666667 42.666667 17.066667 42.666667 42.666667-17.066667 42.666667-42.666667 42.666667z" fill="#4fc3f7" p-id="5026"></path></svg>